PathFileType	3	(X/Y/Z)	F:\ViconData\AntennenMessung\Messung1\Session1\ID08.trc
DataRate	CameraRate	NumFrames	NumMarkers	Units	OrigDataRate	OrigDataStartFrame	OrigNumFrames
120.0	120.0	6	70	mm	120.0	931	1240	
Frame#	Time	Ashort			Along			Atop			A4			Bshort			Blong			Btop			B4			Cshort			Clong			Ctop			C4			Dshort			Dlong			Dtop			D4			Eshort			Elong			Etop			E4			Fshort			Flong			Ftop			F4			Gshort			Glong			Gtop			G4			Hshort			Hlong			Htop			H4			I1			I2			I3			I4			I5			WandAshort			WandAlong			WandAtop			WandA4			WandA15			WandBshort			WandB4			WandB5			WandBtop			WandBlong			WandCshort			WandClong			WandCtop			WandC4			WandC5			Acenter			Aantenna			Bcenter			Bantenna			Ccenter			Cantenna			Dcenter			Dantenna			Ecenter			Eantenna			Fcenter			Fantenna			Gcenter			Gantenna			Hcenter			Hantenna			Icenter			Iantenna			
		X1	Y1	Z1	X2	Y2	Z2	X3	Y3	Z3	X4	Y4	Z4	X5	Y5	Z5	X6	Y6	Z6	X7	Y7	Z7	X8	Y8	Z8	X9	Y9	Z9	X10	Y10	Z10	X11	Y11	Z11	X12	Y12	Z12	X13	Y13	Z13	X14	Y14	Z14	X15	Y15	Z15	X16	Y16	Z16	X17	Y17	Z17	X18	Y18	Z18	X19	Y19	Z19	X20	Y20	Z20	X21	Y21	Z21	X22	Y22	Z22	X23	Y23	Z23	X24	Y24	Z24	X25	Y25	Z25	X26	Y26	Z26	X27	Y27	Z27	X28	Y28	Z28	X29	Y29	Z29	X30	Y30	Z30	X31	Y31	Z31	X32	Y32	Z32	X33	Y33	Z33	X34	Y34	Z34	X35	Y35	Z35	X36	Y36	Z36	X37	Y37	Z37	X38	Y38	Z38	X39	Y39	Z39	X40	Y40	Z40	X41	Y41	Z41	X42	Y42	Z42	X43	Y43	Z43	X44	Y44	Z44	X45	Y45	Z45	X46	Y46	Z46	X47	Y47	Z47	X48	Y48	Z48	X49	Y49	Z49	X50	Y50	Z50	X51	Y51	Z51	X52	Y52	Z52	X53	Y53	Z53	X54	Y54	Z54	X55	Y55	Z55	X56	Y56	Z56	X57	Y57	Z57	X58	Y58	Z58	X59	Y59	Z59	X60	Y60	Z60	X61	Y61	Z61	X62	Y62	Z62	X63	Y63	Z63	X64	Y64	Z64	X65	Y65	Z65	X66	Y66	Z66	X67	Y67	Z67	X68	Y68	Z68	X69	Y69	Z69	X70	Y70	Z70	
931	7.75	-1038.1705	214.45299	-1644.0493	-1109.3618	203.91699	-1599.4218	-1063.5226	172.86919	-1625.8518	-1054.1042	262.12628	-1634.9094	-1352.8229	235.06502	1003.9884	-1281.3441	227.36223	1052.4176	-1322.8302	193.9549	1020.9643	-1284.4994	287.85242	1052.8763	814.13715	187.65723	1209.5793	892.81451	179.14473	1178.6946	844.59973	145.40109	1198.3555	861.26257	292.55005	1168.4885	1115.8519	209.67427	-1401.6041	1056.333	194.12859	-1460.1522	1095.2129	162.34189	-1423.8311	1069.7983	238.85239	-1425.8127	-1204.6865	1686.1241	-1562.9497	-1129.1324	1688.2394	-1605.91	-1173.0658	1724.3303	-1581.9501	-1133.7537	1581.0522	-1603.5651	-1239.5959	1699.1016	1119.4231	-1309.4446	1698.9825	1072.0084	-1270.4427	1736.2919	1096.8883	-1245.5912	1592.8346	1110.7054	988.96655	1664.2921	1162.2456	957.45319	1700.469	1183.8175	922.1842	1662.2974	1214.8989	939.86682	1659.4116	1159.8627	999.29633	1668.4448	-1579.2747	1059.0709	1670.184	-1518.5859	1025.1503	1708.0261	-1551.0652	1059.4264	1672.179	-1585.432	393.00797	1170.2258	-32.897507	395.60388	1172.3967	-116.88999	396.34628	1208.4608	-69.429756	427.11713	1169.3635	-69.154022	346.55496	1174.6533	-71.035789																																														-1068.5011	209.96419	-1625.0359	-1073.6875	248.60844	-1624.186	-1321.5957	231.69986	1025.1458	-1320.3287	270.44226	1029.4379	847.96826	183.99684	1196.299	851.35455	222.79453	1194.2317	1088.9021	202.63527	-1428.1143	1082.9004	240.95482	-1432.1877	-1171.8383	1687.0437	-1581.6272	-1170.5553	1648.0663	-1581.2898	-1271.1406	1699.0479	1098.0098	-1271.871	1660.0723	1099.1836	952.88666	1705.7113	1186.9434	972.81848	1733.8955	1168.7949	1026.6858	1669.2417	-1551.4661	1028.2286	1630.2743	-1551.869	394.16888	1171.1967	-70.460182	391.89481	1132.278	-71.536377
932	7.7583333	-1038.1632	214.50797	-1644.0818	-1109.3594	204.015	-1599.4644	-1063.571	173.07486	-1625.9254	-1054.1412	262.15436	-1634.8639	-1352.8093	235.06827	1004.0142	-1281.454	227.15852	1052.5122	-1322.7942	193.95056	1020.9799	-1284.4365	287.86197	1052.7971	814.15845	187.62109	1209.5082	892.7771	179.13399	1178.632	844.5658	145.43069	1198.3105	861.24664	292.60434	1168.5559	1115.8506	209.65555	-1401.6075	1056.3794	194.00838	-1460.0421	1095.2739	162.3736	-1423.8983	1069.828	238.91389	-1425.8507	-1204.7045	1686.1063	-1562.9178	-1129.1293	1688.2555	-1605.9292	-1173.074	1724.3322	-1581.9473	-1134.0137	1581.0762	-1603.7207	-1239.6127	1699.1426	1119.4351	-1309.4435	1699.004	1072.0089	-1270.4409	1736.3005	1096.8997	-1245.5917	1592.8284	1110.7115	988.91931	1664.2495	1162.2809	957.35919	1700.542	1183.7914	922.09009	1662.2112	1214.882	939.86975	1659.3857	1159.9205	999.29718	1668.4764	-1579.3204	1059.0815	1670.1962	-1518.5909	1025.1559	1708.0345	-1551.0614	1059.4377	1672.1379	-1585.3195	392.99924	1170.2423	-32.892601	395.61157	1172.3978	-116.8952	396.32443	1208.4427	-69.434082	427.11688	1169.3683	-69.145821	346.55432	1174.6543	-71.023895																																														-1068.4878	210.0387	-1625.0779	-1073.6287	248.6882	-1624.1918	-1321.536	231.60162	1025.2694	-1320.2421	270.32962	1029.6818	847.9176	183.97667	1196.2498	851.29144	222.77507	1194.1755	1088.8589	202.55389	-1428.1285	1082.743	240.85966	-1432.1616	-1171.8311	1687.041	-1581.6267	-1170.532	1648.0641	-1581.2917	-1271.1333	1699.08	1098.0276	-1271.8582	1660.1046	1099.2089	952.9165	1705.6506	1186.8193	972.88507	1733.7897	1168.6411	1026.7003	1669.2646	-1551.4839	1028.2527	1630.2979	-1551.9087	394.16739	1171.2062	-70.456657	391.91287	1132.2861	-71.525459
933	7.7666667	-1038.1796	214.4897	-1644.0718	-1109.3226	203.92712	-1599.4441	-1063.6338	173.0491	-1625.8694	-1054.1359	262.1203	-1634.8391	-1352.9053	234.93318	1004.0587	-1281.2621	227.4435	1052.3535	-1322.8339	193.9868	1020.9273	-1284.4841	287.81879	1052.8485	813.96619	187.70747	1209.4993	892.46497	178.55045	1179.1191	844.51947	145.46144	1198.2931	861.22913	292.47491	1168.4586	1115.9359	209.96057	-1401.7625	1056.3838	194.01468	-1460.0499	1095.2161	162.38091	-1423.8656	1069.8168	238.88507	-1425.8439	-1204.6782	1686.1191	-1562.9415	-1129.1287	1688.2451	-1605.9324	-1173.0626	1724.3224	-1581.9392	-1133.7505	1581.0652	-1603.5826	-1239.6362	1699.1755	1119.4479	-1309.4333	1698.937	1071.9961	-1270.4452	1736.3052	1096.8951	-1245.6311	1592.9275	1110.7288	988.93164	1664.2729	1162.2733	957.43542	1700.5237	1183.79	922.0509	1662.2855	1214.8855	939.87878	1659.4071	1159.905	999.31372	1668.4298	-1579.282	1059.0791	1670.1879	-1518.5869	1025.1405	1708.0255	-1551.0565	1059.438	1672.1382	-1585.3224	392.99884	1170.2344	-32.898338	395.60583	1172.3987	-116.88966	396.34174	1208.4567	-69.436455	427.02921	1169.443	-69.156006	346.57309	1174.6663	-71.02459																																														-1068.5745	209.97697	-1625.0052	-1073.7448	248.62215	-1624.101	-1321.7023	231.67117	1025.0927	-1320.5387	270.41785	1029.3755	848.19232	183.71492	1196.2532	851.91449	222.48181	1194.1859	1088.7917	202.69235	-1428.3301	1082.6904	240.97806	-1432.5702	-1171.8372	1687.0432	-1581.6293	-1170.5562	1648.0657	-1581.3054	-1271.1055	1699.068	1098.0533	-1271.7965	1660.0929	1099.2657	952.91541	1705.726	1186.8778	972.91058	1733.8682	1168.7336	1026.7004	1669.2354	-1551.469	1028.2675	1630.269	-1551.8834	394.16483	1171.2023	-70.464043	391.89066	1132.2834	-71.537552
934	7.775	-1038.1982	214.50716	-1644.0833	-1109.3499	203.90274	-1599.4023	-1063.5782	173.08844	-1625.8718	-1054.1195	262.147	-1634.8303	-1352.8538	235.10783	1004.0572	-1281.4047	227.26392	1052.4105	-1322.7986	193.97186	1020.9363	-1284.391	287.89972	1052.7789	814.14111	187.66324	1209.5146	892.77551	179.13777	1178.6111	844.51801	145.39471	1198.3711	861.30414	292.5007	1168.5088	1115.8698	209.66765	-1401.6185	1056.4009	194.03564	-1460.0431	1095.2974	162.4684	-1423.8052	1069.7981	238.90875	-1425.8721	-1204.6605	1686.1151	-1562.9259	-1129.1171	1688.2598	-1605.9635	-1173.0692	1724.3353	-1581.9425	-1134.0104	1581.0833	-1603.7401	-1239.6243	1699.1531	1119.4434	-1309.3868	1698.8412	1071.9459	-1270.4197	1736.2816	1096.8804	-1245.6527	1592.896	1110.7264	988.94714	1664.2731	1162.278	957.36627	1700.4681	1183.8499	922.1651	1662.3014	1214.8813	939.82819	1659.3894	1159.9087	999.30426	1668.4622	-1579.3033	1059.0872	1670.1956	-1518.5959	1025.1475	1708.0267	-1551.0696	1059.4408	1672.1492	-1585.3296	393.01117	1170.2336	-32.905483	395.60001	1172.4033	-116.88898	396.33752	1208.458	-69.429916	427.10309	1169.3588	-69.155304	346.55557	1174.653	-71.029015																																														-1068.5459	209.98415	-1625.0258	-1073.7487	248.6254	-1624.1398	-1321.5662	231.67297	1025.231	-1320.3	270.40192	1029.6428	847.8736	184.006	1196.2576	851.24524	222.8019	1194.134	1088.9431	202.58969	-1428.0723	1082.8759	240.89882	-1432.1466	-1171.8318	1687.047	-1581.6285	-1170.5385	1648.0698	-1581.3004	-1271.0485	1699.0126	1098.0483	-1271.7058	1660.0371	1099.2699	952.81458	1705.6849	1186.9589	972.73352	1733.8795	1168.8123	1026.6962	1669.2563	-1551.4877	1028.2528	1630.2897	-1551.908	394.16879	1171.2037	-70.459267	391.90311	1132.2845	-71.53463
935	7.7833333	-1038.1802	214.42709	-1644.0312	-1109.3489	203.94806	-1599.4148	-1063.5088	172.90392	-1625.8387	-1054.1091	262.17221	-1634.8741	-1352.8907	234.89464	1004.0127	-1281.382	227.29234	1052.3918	-1322.8818	193.90025	1021.002	-1284.4835	287.84082	1052.827	813.97888	187.6199	1209.5508	892.80847	179.22215	1178.5916	844.51636	145.36063	1198.3966	861.31152	292.38443	1168.2988	1115.9346	209.96764	-1401.7523	1056.3799	194.00751	-1460.0485	1095.2371	162.41164	-1423.8237	1069.8221	238.85538	-1425.8391	-1204.6617	1686.1241	-1562.943	-1129.1667	1688.39	-1606.4792	-1173.0729	1724.3474	-1581.9517	-1133.7461	1581.0463	-1603.5671	-1239.6383	1699.1731	1119.4504	-1309.3907	1698.8921	1071.9741	-1270.4254	1736.2631	1096.8867	-1245.577	1592.7212	1110.6783	988.92676	1664.2653	1162.281	957.3949	1700.5107	1183.792	921.91071	1662.2867	1214.8708	939.85413	1659.3776	1159.8854	999.30524	1668.4376	-1579.286	1059.0868	1670.1898	-1518.5879	1025.1443	1708.0321	-1551.0673	1059.437	1672.1407	-1585.3335	393.00577	1170.2439	-32.91737	395.59573	1172.3944	-116.89013	396.34338	1208.4457	-69.433022	427.0379	1169.4579	-69.171417	346.57019	1174.6477	-71.025978																																														-1068.4677	209.9675	-1625.0437	-1073.6384	248.61432	-1624.2147	-1321.6718	231.57565	1025.1338	-1320.4274	270.32346	1029.3833	847.79865	184.01706	1196.2684	851.09332	222.81889	1194.1324	1088.8177	202.70056	-1428.2961	1082.7179	240.98541	-1432.546	-1171.8914	1687.1075	-1581.8407	-1170.6545	1648.1273	-1581.7249	-1271.0713	1699.0464	1098.0558	-1271.7477	1660.0715	1099.2803	952.82025	1705.769	1186.9127	972.83447	1733.9243	1168.8098	1026.6958	1669.2404	-1551.4755	1028.2544	1630.2737	-1551.8855	394.16348	1171.2051	-70.453964	391.88538	1132.2863	-71.520927
936	7.7916667	-1038.1735	214.44658	-1644.045	-1109.3508	203.96686	-1599.447	-1063.5995	173.09299	-1625.8961	-1054.1208	262.16418	-1634.8716	-1352.856	234.96831	1004.0093	-1281.3848	227.32175	1052.3892	-1322.8782	193.9137	1021.0111	-1284.4205	287.91501	1052.8243	814.08826	187.79053	1209.6411	892.40265	178.66185	1179.0026	844.55524	145.39891	1198.3369	861.29858	292.45203	1168.5265	1115.9296	209.93672	-1401.7522	1056.3811	194.02263	-1460.0441	1095.2734	162.36908	-1423.8571	1069.8337	238.88332	-1425.8315	-1204.6587	1686.1097	-1562.9395	-1129.125	1688.2693	-1605.947	-1173.0737	1724.3392	-1581.9489	-1133.7313	1581.042	-1603.5797	-1239.6039	1699.1384	1119.4319	-1309.556	1699.1443	1072.0585	-1270.4205	1736.2618	1096.8785	-1245.6173	1592.8574	1110.7061	988.93781	1664.2728	1162.2827	957.42615	1700.4553	1183.8164	922.05634	1662.2549	1214.8917	939.81171	1659.4017	1159.8837	999.31256	1668.4731	-1579.3131	1059.0905	1670.1993	-1518.5951	1025.1481	1708.032	-1551.0703	1059.4309	1672.135	-1585.3278	393.01947	1170.233	-32.879642	395.60284	1172.3855	-116.89921	396.35168	1208.438	-69.463837	427.12186	1169.3792	-69.167831	346.56912	1174.6669	-71.018593																																														-1068.4973	209.98186	-1625.0447	-1073.629	248.63246	-1624.1528	-1321.6384	231.6284	1025.1406	-1320.3649	270.37604	1029.3834	848.22961	183.81085	1196.2841	851.93793	222.57883	1194.2122	1088.8281	202.69394	-1428.2817	1082.7085	240.98103	-1432.4828	-1171.8276	1687.0483	-1581.6327	-1170.5251	1648.0715	-1581.3024	-1271.2042	1699.1409	1098.031	-1272.0271	1660.1685	1099.2412	952.85126	1705.7081	1186.9427	972.81909	1733.8838	1168.8203	1026.6995	1669.2639	-1551.4956	1028.2588	1630.2974	-1551.923	394.17572	1171.1963	-70.484818	391.90173	1132.2772	-71.551788
